<?xml version="1.0" encoding="UTF-8" standalone="no"?>
<!DOCTYPE svg PUBLIC "-//W3C//DTD SVG 1.1//EN"
 "http://www.w3.org/Graphics/SVG/1.1/DTD/svg11.dtd">
<!-- Generated by graphviz version 2.50.0 (0)
 -->
<!-- Title: Tree Pages: 1 -->
<svg width="717pt" height="433pt"
 viewBox="0.00 0.00 717.00 433.00" xmlns="http://www.w3.org/2000/svg" xmlns:xlink="http://www.w3.org/1999/xlink">
<g id="graph0" class="graph" transform="scale(1 1) rotate(0) translate(4 429)">
<title>Tree</title>
<polygon fill="white" stroke="transparent" points="-4,4 -4,-429 713,-429 713,4 -4,4"/>
<!-- 0 -->
<g id="node1" class="node">
<title>0</title>
<path fill="#ffffff" stroke="black" d="M601,-425C601,-425 373,-425 373,-425 367,-425 361,-419 361,-413 361,-413 361,-354 361,-354 361,-348 367,-342 373,-342 373,-342 601,-342 601,-342 607,-342 613,-348 613,-354 613,-354 613,-413 613,-413 613,-419 607,-425 601,-425"/>
<text text-anchor="start" x="435.5" y="-409.8" font-family="Helvetica,sans-Serif" font-size="14.00">tempo ≤ 166.054</text>
<text text-anchor="start" x="459" y="-394.8" font-family="Helvetica,sans-Serif" font-size="14.00">gini = 0.8</text>
<text text-anchor="start" x="434.5" y="-379.8" font-family="Helvetica,sans-Serif" font-size="14.00">samples = 15144</text>
<text text-anchor="start" x="369" y="-364.8" font-family="Helvetica,sans-Serif" font-size="14.00">value = [3007, 3053, 3019, 3023, 3042]</text>
<text text-anchor="start" x="439.5" y="-349.8" font-family="Helvetica,sans-Serif" font-size="14.00">class = dubstep</text>
</g>
<!-- 1 -->
<g id="node2" class="node">
<title>1</title>
<path fill="#ffffff" stroke="black" d="M479,-306C479,-306 251,-306 251,-306 245,-306 239,-300 239,-294 239,-294 239,-235 239,-235 239,-229 245,-223 251,-223 251,-223 479,-223 479,-223 485,-223 491,-229 491,-235 491,-235 491,-294 491,-294 491,-300 485,-306 479,-306"/>
<text text-anchor="start" x="313.5" y="-290.8" font-family="Helvetica,sans-Serif" font-size="14.00">tempo ≤ 139.443</text>
<text text-anchor="start" x="329.5" y="-275.8" font-family="Helvetica,sans-Serif" font-size="14.00">gini = 0.788</text>
<text text-anchor="start" x="312.5" y="-260.8" font-family="Helvetica,sans-Serif" font-size="14.00">samples = 13174</text>
<text text-anchor="start" x="247" y="-245.8" font-family="Helvetica,sans-Serif" font-size="14.00">value = [1331, 2827, 2991, 3005, 3020]</text>
<text text-anchor="start" x="322.5" y="-230.8" font-family="Helvetica,sans-Serif" font-size="14.00">class = trance</text>
</g>
<!-- 0&#45;&gt;1 -->
<g id="edge1" class="edge">
<title>0&#45;&gt;1</title>
<path fill="none" stroke="black" d="M444.67,-341.91C435.02,-332.65 424.68,-322.73 414.75,-313.21"/>
<polygon fill="black" stroke="black" points="416.89,-310.42 407.25,-306.02 412.05,-315.47 416.89,-310.42"/>
<text text-anchor="middle" x="407.78" y="-327.32" font-family="Helvetica,sans-Serif" font-size="14.00">True</text>
</g>
<!-- 6 -->
<g id="node7" class="node">
<title>6</title>
<path fill="#e9965a" stroke="black" d="M697,-298.5C697,-298.5 521,-298.5 521,-298.5 515,-298.5 509,-292.5 509,-286.5 509,-286.5 509,-242.5 509,-242.5 509,-236.5 515,-230.5 521,-230.5 521,-230.5 697,-230.5 697,-230.5 703,-230.5 709,-236.5 709,-242.5 709,-242.5 709,-286.5 709,-286.5 709,-292.5 703,-298.5 697,-298.5"/>
<text text-anchor="start" x="573.5" y="-283.3" font-family="Helvetica,sans-Serif" font-size="14.00">gini = 0.263</text>
<text text-anchor="start" x="560.5" y="-268.3" font-family="Helvetica,sans-Serif" font-size="14.00">samples = 1970</text>
<text text-anchor="start" x="517" y="-253.3" font-family="Helvetica,sans-Serif" font-size="14.00">value = [1676, 226, 28, 18, 22]</text>
<text text-anchor="start" x="540.5" y="-238.3" font-family="Helvetica,sans-Serif" font-size="14.00">class = drum and bass</text>
</g>
<!-- 0&#45;&gt;6 -->
<g id="edge6" class="edge">
<title>0&#45;&gt;6</title>
<path fill="none" stroke="black" d="M529.33,-341.91C541.52,-330.21 554.82,-317.46 567,-305.78"/>
<polygon fill="black" stroke="black" points="569.62,-308.11 574.42,-298.67 564.78,-303.06 569.62,-308.11"/>
<text text-anchor="middle" x="573.89" y="-319.96" font-family="Helvetica,sans-Serif" font-size="14.00">False</text>
</g>
<!-- 2 -->
<g id="node3" class="node">
<title>2</title>
<path fill="#fcfffe" stroke="black" d="M353,-187C353,-187 125,-187 125,-187 119,-187 113,-181 113,-175 113,-175 113,-116 113,-116 113,-110 119,-104 125,-104 125,-104 353,-104 353,-104 359,-104 365,-110 365,-116 365,-116 365,-175 365,-175 365,-181 359,-187 353,-187"/>
<text text-anchor="start" x="187.5" y="-171.8" font-family="Helvetica,sans-Serif" font-size="14.00">tempo ≤ 127.502</text>
<text text-anchor="start" x="207" y="-156.8" font-family="Helvetica,sans-Serif" font-size="14.00">gini = 0.77</text>
<text text-anchor="start" x="186.5" y="-141.8" font-family="Helvetica,sans-Serif" font-size="14.00">samples = 10907</text>
<text text-anchor="start" x="121" y="-126.8" font-family="Helvetica,sans-Serif" font-size="14.00">value = [1072, 1221, 2949, 2836, 2829]</text>
<text text-anchor="start" x="182.5" y="-111.8" font-family="Helvetica,sans-Serif" font-size="14.00">class = tech house</text>
</g>
<!-- 1&#45;&gt;2 -->
<g id="edge2" class="edge">
<title>1&#45;&gt;2</title>
<path fill="none" stroke="black" d="M321.28,-222.91C311.22,-213.56 300.43,-203.54 290.08,-193.93"/>
<polygon fill="black" stroke="black" points="292.35,-191.26 282.64,-187.02 287.58,-196.39 292.35,-191.26"/>
</g>
<!-- 5 -->
<g id="node6" class="node">
<title>5</title>
<path fill="#a6ee7a" stroke="black" d="M586.5,-179.5C586.5,-179.5 395.5,-179.5 395.5,-179.5 389.5,-179.5 383.5,-173.5 383.5,-167.5 383.5,-167.5 383.5,-123.5 383.5,-123.5 383.5,-117.5 389.5,-111.5 395.5,-111.5 395.5,-111.5 586.5,-111.5 586.5,-111.5 592.5,-111.5 598.5,-117.5 598.5,-123.5 598.5,-123.5 598.5,-167.5 598.5,-167.5 598.5,-173.5 592.5,-179.5 586.5,-179.5"/>
<text text-anchor="start" x="455.5" y="-164.3" font-family="Helvetica,sans-Serif" font-size="14.00">gini = 0.472</text>
<text text-anchor="start" x="442.5" y="-149.3" font-family="Helvetica,sans-Serif" font-size="14.00">samples = 2267</text>
<text text-anchor="start" x="391.5" y="-134.3" font-family="Helvetica,sans-Serif" font-size="14.00">value = [259, 1606, 42, 169, 191]</text>
<text text-anchor="start" x="443.5" y="-119.3" font-family="Helvetica,sans-Serif" font-size="14.00">class = dubstep</text>
</g>
<!-- 1&#45;&gt;5 -->
<g id="edge5" class="edge">
<title>1&#45;&gt;5</title>
<path fill="none" stroke="black" d="M408.72,-222.91C421.31,-211.21 435.05,-198.46 447.62,-186.78"/>
<polygon fill="black" stroke="black" points="450.34,-189.04 455.28,-179.67 445.57,-183.91 450.34,-189.04"/>
</g>
<!-- 3 -->
<g id="node4" class="node">
<title>3</title>
<path fill="#d2f9f2" stroke="black" d="M218,-68C218,-68 12,-68 12,-68 6,-68 0,-62 0,-56 0,-56 0,-12 0,-12 0,-6 6,0 12,0 12,0 218,0 218,0 224,0 230,-6 230,-12 230,-12 230,-56 230,-56 230,-62 224,-68 218,-68"/>
<text text-anchor="start" x="79.5" y="-52.8" font-family="Helvetica,sans-Serif" font-size="14.00">gini = 0.735</text>
<text text-anchor="start" x="66.5" y="-37.8" font-family="Helvetica,sans-Serif" font-size="14.00">samples = 6121</text>
<text text-anchor="start" x="8" y="-22.8" font-family="Helvetica,sans-Serif" font-size="14.00">value = [763, 873, 2498, 1432, 555]</text>
<text text-anchor="start" x="58.5" y="-7.8" font-family="Helvetica,sans-Serif" font-size="14.00">class = tech house</text>
</g>
<!-- 2&#45;&gt;3 -->
<g id="edge3" class="edge">
<title>2&#45;&gt;3</title>
<path fill="none" stroke="black" d="M192.83,-103.73C182.19,-94.33 170.88,-84.35 160.28,-74.99"/>
<polygon fill="black" stroke="black" points="162.52,-72.3 152.71,-68.3 157.89,-77.54 162.52,-72.3"/>
</g>
<!-- 4 -->
<g id="node5" class="node">
<title>4</title>
<path fill="#f8ccef" stroke="black" d="M466,-68C466,-68 260,-68 260,-68 254,-68 248,-62 248,-56 248,-56 248,-12 248,-12 248,-6 254,0 260,0 260,0 466,0 466,0 472,0 478,-6 478,-12 478,-12 478,-56 478,-56 478,-62 472,-68 466,-68"/>
<text text-anchor="start" x="331" y="-52.8" font-family="Helvetica,sans-Serif" font-size="14.00">gini = 0.67</text>
<text text-anchor="start" x="314.5" y="-37.8" font-family="Helvetica,sans-Serif" font-size="14.00">samples = 4786</text>
<text text-anchor="start" x="256" y="-22.8" font-family="Helvetica,sans-Serif" font-size="14.00">value = [309, 348, 451, 1404, 2274]</text>
<text text-anchor="start" x="320.5" y="-7.8" font-family="Helvetica,sans-Serif" font-size="14.00">class = trance</text>
</g>
<!-- 2&#45;&gt;4 -->
<g id="edge4" class="edge">
<title>2&#45;&gt;4</title>
<path fill="none" stroke="black" d="M285.17,-103.73C295.81,-94.33 307.12,-84.35 317.72,-74.99"/>
<polygon fill="black" stroke="black" points="320.11,-77.54 325.29,-68.3 315.48,-72.3 320.11,-77.54"/>
</g>
</g>
</svg>
